#!OML:ASF X:\für Bonn\!DataBase\2005_08_12_Daniel\c3d\Daniel.ASF
:FULLY-SPECIFIED
:DEGREES
228
root -0.69372 16.5415 -6.27155 171.453 -11.1245 -176.251
lowerback 39.8147 -1.62263 6.40131
upperback 11.2447 -3.60921 -1.62787
thorax -6.992 -3.18459 -3.43666
lowerneck 1.60495 -1.81075 -7.71082
upperneck 11.5224 -3.36008 4.62756
head 3.74274 -2.04952 2.82611
rclavicle -3.69739e-014 -5.56597e-015
rhumerus -24.413 3.09248 -90.3826
rradius 23.1996
rwrist 9.73361
rhand -18.2247 15.1854
rfingers 7.12502
rthumb 8.0535 -14.6411
lclavicle -3.69739e-014 -5.56597e-015
lhumerus -18.1742 -4.21683 89.8056
lradius 36.5696
lwrist -16.4266
lhand -14.9761 -8.75016
lfingers 7.12502
lthumb 11.1878 20.9315
rfemur -34.104 -8.12818 20.9531
rtibia 75.5235
rfoot -1.79381 4.78285
rtoes -10.6925
lfemur -10.7238 -3.79728 -20.6566
ltibia 56.3205
lfoot -37.1287 -1.48893
ltoes -3.70924
229
root -0.70828 16.5899 -6.35659 171.601 -10.9716 -176.293
lowerback 39.1713 -1.66567 6.16022
upperback 11.1238 -3.69755 -1.70352
thorax -6.93988 -3.19027 -3.38407
lowerneck 1.39957 -1.65973 -7.50164
upperneck 11.7231 -3.14089 4.42884
head 3.82476 -1.94438 2.7239
rclavicle -2.50469e-014 9.54166e-015
rhumerus -25.0223 3.60613 -90.8158
rradius 23.2884
rwrist 9.28194
rhand -18.1728 15.0867
rfingers 7.12502
rthumb 8.10352 -14.7379
lclavicle -2.50469e-014 9.54166e-015
lhumerus -18.3311 -3.87496 89.4396
lradius 35.7799
lwrist -15.8646
lhand -14.9977 -8.52778
lfingers 7.12502
lthumb 11.167 21.1551
rfemur -34.1223 -8.15669 21.1838
rtibia 73.9311
rfoot -1.95898 5.44599
rtoes -10.8426
lfemur -9.91182 -3.65414 -20.6689
ltibia 55.213
lfoot -36.9765 -1.4473
ltoes -3.76843
230
root -0.722937 16.6417 -6.44305 171.761 -10.7967 -176.372
lowerback 38.5727 -1.7054 5.88182
upperback 10.9514 -3.7783 -1.78257
thorax -6.95352 -3.19026 -3.31478
lowerneck 1.21801 -1.49845 -7.30668
upperneck 11.9664 -2.91591 4.22386
head 3.91865 -1.84052 2.62334
rclavicle 1.90833e-014 6.36111e-015
rhumerus -25.7244 4.12352 -91.2397
rradius 23.3779
rwrist 8.86127
rhand -18.1388 15.0214
rfingers 7.12502
rthumb 8.13638 -14.8019
lclavicle 1.90833e-014 6.36111e-015
lhumerus -18.5394 -3.41232 89.0585
lradius 34.9229
lwrist -15.4096
lhand -15.0525 -8.40417
lfingers 7.12502
lthumb 11.1142 21.2815
rfemur -34.113 -8.16439 21.3681
rtibia 72.2132
rfoot -2.043 5.94263
rtoes -10.954
lfemur -9.07466 -3.47366 -20.7064
ltibia 54.0507
lfoot -36.7987 -1.44447
ltoes -3.76287
231
root -0.737396 16.6935 -6.53266 171.928 -10.6201 -176.435
lowerback 37.9337 -1.74452 5.63436
upperback 10.7967 -3.84991 -1.85577
thorax -6.92815 -3.1863 -3.26191
lowerneck 1.06686 -1.34848 -7.09712
upperneck 12.1723 -2.70741 4.03285
head 3.99591 -1.74297 2.52488
rclavicle -1.78906e-014 -3.49861e-014
rhumerus -26.3727 4.46299 -91.626
rradius 23.4236
rwrist 8.61592
rhand -18.1208 14.9968
rfingers 7.12502
rthumb 8.15378 -14.8258
lclavicle -1.78906e-014 -3.49861e-014
lhumerus -18.6808 -2.80666 88.6655
lradius 33.9621
lwrist -15.2034
lhand -14.9829 -8.31991
lfingers 7.12502
lthumb 11.1812 21.3622
rfemur -34.0676 -8.19066 21.5534
rtibia 70.3844
rfoot -2.1506 6.32239
rtoes -11.081
lfemur -8.21736 -3.28148 -20.7266
ltibia 52.86
lfoot -36.6074 -1.42856
ltoes -3.81259
232
root -0.751933 16.7392 -6.62326 172.057 -10.4471 -176.495
lowerback 37.3547 -1.79757 5.38707
upperback 10.635 -3.93776 -1.91607
thorax -6.92552 -3.19291 -3.18603
lowerneck 0.971496 -1.18512 -6.9304
upperneck 12.36 -2.48636 3.85183
head 4.05772 -1.6421 2.43874
rclavicle 1.78906e-014 4.77083e-015
rhumerus -27.0261 4.78898 -91.9917
rradius 23.4715
rwrist 8.47758
rhand -18.1328 14.8832
rfingers 7.12502
rthumb 8.14213 -14.9399
lclavicle 1.78906e-014 4.77083e-015
lhumerus -18.773 -1.98834 88.2519
lradius 32.8895
lwrist -15.2731
lhand -14.9189 -8.30233
lfingers 7.12502
lthumb 11.243 21.3764
rfemur -33.9085 -8.26941 21.7247
rtibia 68.4042
rfoot -2.21728 6.6043
rtoes -10.9425
lfemur -7.32602 -3.10631 -20.7467
ltibia 51.6645
lfoot -36.4238 -1.42796
ltoes -3.81114
233
root -0.76603 16.7836 -6.71625 172.212 -10.272 -176.576
lowerback 36.7583 -1.85269 5.13258
upperback 10.4592 -4.02554 -1.99332
thorax -6.92942 -3.19731 -3.12509
lowerneck 0.962622 -1.01748 -6.73391
upperneck 12.5033 -2.26572 3.6682
head 4.08715 -1.54085 2.3462
rclavicle -2.66371e-014 4.77083e-015
rhumerus -27.7466 5.117 -92.3781
rradius 23.5689
rwrist 8.31655
rhand -18.1224 14.7952
rfingers 7.12502
rthumb 8.15217 -15.0275
lclavicle -2.66371e-014 4.77083e-015
lhumerus -18.9247 -1.04436 87.7735
lradius 31.8344
lwrist -15.5373
lhand -14.7111 -8.28526
lfingers 7.12502
lthumb 11.4434 21.3824
rfemur -33.7265 -8.33673 21.8646
rtibia 66.3191
rfoot -2.31553 6.8188
rtoes -11.0721
lfemur -6.44504 -2.94467 -20.7948
ltibia 50.4593
lfoot -36.2253 -1.40149
ltoes -3.85436
234
root -0.779441 16.8262 -6.81177 172.356 -10.1227 -176.654
lowerback 36.1768 -1.9206 4.87744
upperback 10.2759 -4.12496 -2.04802
thorax -6.94058 -3.20796 -3.03488
lowerneck 1.01099 -0.846889 -6.59721
upperneck 12.6244 -2.04563 3.49561
head 4.10026 -1.44315 2.26857
rclavicle 1.07344e-014 1.27222e-014
rhumerus -28.4345 5.17934 -92.6496
rradius 23.6097
rwrist 8.49765
rhand -18.0844 14.753
rfingers 7.12502
rthumb 8.18883 -15.0683
lclavicle 1.07344e-014 1.27222e-014
lhumerus -19.0539 0.171396 87.3009
lradius 30.679
lwrist -16.1592
lhand -14.5055 -8.30847
lfingers 7.12502
lthumb 11.6416 21.3481
rfemur -33.4852 -8.36508 21.9948
rtibia 64.1175
rfoot -2.43577 6.84653
rtoes -10.9272
lfemur -5.54114 -2.76957 -20.8313
ltibia 49.2403
lfoot -36.026 -1.39118
ltoes -3.91402
235
root -0.791905 16.8666 -6.90922 172.486 -9.993 -176.73
lowerback 35.6076 -1.99642 4.62158
upperback 10.0887 -4.23238 -2.09566
thorax -6.9556 -3.22288 -2.93354
lowerneck 1.14919 -0.663274 -6.43347
upperneck 12.677 -1.80988 3.30601
head 4.0704 -1.33653 2.18001
rclavicle 2.38542e-015 1.35174e-014
rhumerus -29.1446 5.19913 -92.9027
rradius 23.6606
rwrist 8.75074
rhand -18.1004 14.7013
rfingers 7.12502
rthumb 8.17344 -15.1207
lclavicle 2.38542e-015 1.35174e-014
lhumerus -19.1616 1.6478 86.7596
lradius 29.4564
lwrist -17.1845
lhand -14.1492 -8.35334
lfingers 7.12502
lthumb 11.9852 21.2835
rfemur -33.1966 -8.36774 22.1177
rtibia 61.8319
rfoot -2.64342 6.66261
rtoes -11.14
lfemur -4.60433 -2.63838 -20.8692
ltibia 47.9908
lfoot -35.8157 -1.39635
ltoes -3.99221
236
root -0.802732 16.9087 -7.01146 172.622 -9.88479 -176.79
lowerback 34.9187 -2.06956 4.31911
upperback 9.99828 -4.35667 -2.1085
thorax -6.94189 -3.24691 -2.76761
lowerneck 1.20798 -0.478797 -6.27889
upperneck 12.8117 -1.57138 3.09861
head 4.08631 -1.23189 2.08776
rclavicle -2.22639e-014 -1.19271e-014
rhumerus -29.8086 5.14937 -93.0972
rradius 23.6757
rwrist 9.11511
rhand -18.0309 14.6878
rfingers 7.12502
rthumb 8.24047 -15.1315
lclavicle -2.22639e-014 -1.19271e-014
lhumerus -19.2198 3.35888 86.1706
lradius 28.1688
lwrist -18.4654
lhand -13.7495 -8.34625
lfingers 7.12502
lthumb 12.3706 21.2677
rfemur -32.8667 -8.22408 22.2512
rtibia 59.4712
rfoot -2.99832 6.20093
rtoes -11.5037
lfemur -3.63642 -2.54172 -20.8897
ltibia 46.6991
lfoot -35.6037 -1.36352
ltoes -4.06757
237
root -0.81314 16.9513 -7.11616 172.76 -9.79677 -176.868
lowerback 34.2982 -2.15997 4.00532
upperback 9.83564 -4.50352 -2.13214
thorax -6.90077 -3.28274 -2.60032
lowerneck 1.22985 -0.292942 -6.09139
upperneck 12.9371 -1.32602 2.89265
head 4.10632 -1.1208 1.99043
rclavicle -1.86858e-014 -2.8625e-014
rhumerus -30.4036 5.15072 -93.3067
rradius 23.6726
rwrist 9.41242
rhand -17.9697 14.6408
rfingers 7.12502
rthumb 8.29959 -15.1762
lclavicle -1.86858e-014 -2.8625e-014
lhumerus -19.2309 5.308 85.4915
lradius 26.8075
lwrist -20.0996
lhand -13.3372 -8.37998
lfingers 7.12502
lthumb 12.7681 21.2096
rfemur -32.5192 -7.99488 22.3398
rtibia 57.0752
rfoot -3.45587 5.58837
rtoes -11.9391
lfemur -2.65106 -2.47212 -20.9432
ltibia 45.383
lfoot -35.3667 -1.3131
ltoes -4.13912
238
root -0.822815 16.9913 -7.22292 172.909 -9.71542 -176.948
lowerback 33.6666 -2.25595 3.69753
upperback 9.66562 -4.64916 -2.13466
thorax -6.85549 -3.31767 -2.41607
lowerneck 1.18925 -0.111489 -5.98485
upperneck 13.1062 -1.08459 2.70811
head 4.15743 -1.0155 1.91586
rclavicle -3.89618e-014 -3.97569e-014
rhumerus -30.9804 5.14375 -93.4738
rradius 23.6686
rwrist 9.61905
rhand -17.8336 14.597
rfingers 7.12502
rthumb 8.43095 -15.2147
lclavicle -3.89618e-014 -3.97569e-014
lhumerus -19.2348 7.53909 84.7794
lradius 25.4199
lwrist -22.0713
lhand -12.9101 -8.40665
lfingers 7.12502
lthumb 13.1798 21.1568
rfemur -32.1428 -7.68 22.4049
rtibia 54.6461
rfoot -4.04535 4.81396
rtoes -12.4245
lfemur -1.66351 -2.45479 -21.015
ltibia 44.0581
lfoot -35.1519 -1.22054
ltoes -4.20978
